<svg xmlns="http://www.w3.org/2000/svg" xmlns:xlink="http://www.w3.org/1999/xlink" width="500" zoomAndPan="magnify" viewBox="0 0 375 374.999991" height="500" preserveAspectRatio="xMidYMid meet" version="1.0"><defs><clipPath id="965d1e432e"><path d="M 76 70.125 L 180 70.125 L 180 187 L 76 187 Z M 76 70.125 " clip-rule="nonzero"/></clipPath><clipPath id="f344ffd4c5"><path d="M 195 186 L 331 186 L 331 304.875 L 195 304.875 Z M 195 186 " clip-rule="nonzero"/></clipPath><clipPath id="f182ddabd6"><path d="M 96 195.390625 L 331 195.390625 L 331 304.875 L 96 304.875 Z M 96 195.390625 " clip-rule="nonzero"/></clipPath><clipPath id="43d7c4b6f3"><path d="M 102 112.421875 L 336.730469 112.421875 L 336.730469 252 L 102 252 Z M 102 112.421875 " clip-rule="nonzero"/></clipPath><clipPath id="12587021be"><path d="M 192 169.359375 L 336.730469 169.359375 L 336.730469 263 L 192 263 Z M 192 169.359375 " clip-rule="nonzero"/></clipPath></defs><g clip-path="url(#965d1e432e)"><path fill="#f13ea7" d="M 99.792969 169.457031 L 111.667969 176.757812 L 94.085938 186.765625 L 76.6875 176.566406 L 94.460938 166.183594 Z M 174.808594 77.320312 L 179.957031 80.214844 L 162.460938 90.136719 L 145.253906 80.128906 L 162.835938 70.117188 L 174.808594 77.320312 " fill-opacity="1" fill-rule="evenodd"/></g><path fill="#fbeb87" d="M 156.476562 111.742188 L 139.261719 121.847656 L 121.957031 111.933594 L 139.261719 101.453125 L 145.253906 105.101562 Z M 208.203125 102.300781 L 202.871094 98.835938 L 202.871094 84.804688 L 208.484375 81.621094 L 225.324219 91.726562 L 225.699219 92.285156 L 208.203125 102.300781 " fill-opacity="1" fill-rule="evenodd"/><path fill="#d5dff4" d="M 202.871094 84.804688 L 202.871094 137.421875 L 185.191406 147.570312 L 185.191406 91.914062 L 202.871094 81.90625 L 202.871094 84.804688 " fill-opacity="1" fill-rule="evenodd"/><path fill="#edf2fb" d="M 179.957031 88.828125 L 179.957031 80.214844 L 174.808594 77.320312 L 185.65625 71.054688 L 202.871094 81.90625 L 185.191406 91.914062 L 179.957031 88.828125 " fill-opacity="1" fill-rule="evenodd"/><path fill="#4ac2bd" d="M 247.679688 99.210938 L 230.097656 109.21875 L 225.699219 106.691406 L 225.699219 92.285156 L 225.324219 91.726562 L 230.847656 88.453125 Z M 117.375 154.117188 L 99.792969 143.921875 L 117.65625 133.632812 L 121.957031 136.253906 L 135.148438 144.019531 Z M 96.328125 207.0625 L 109.144531 214.636719 L 73.691406 235.5 L 38.238281 214.636719 L 73.691406 193.6875 L 76.6875 195.464844 L 94.085938 205.753906 L 94.410156 205.9375 L 96.328125 207.0625 " fill-opacity="1" fill-rule="evenodd"/><path fill="#fbd01c" d="M 156.476562 111.742188 L 156.476562 164.082031 L 139.589844 173.765625 L 139.261719 121.847656 Z M 225.699219 106.691406 L 225.699219 124.28125 L 208.203125 134.332031 L 208.203125 102.300781 L 225.699219 92.285156 L 225.699219 106.691406 " fill-opacity="1" fill-rule="evenodd"/><path fill="#25686c" d="M 225.699219 106.691406 L 230.097656 109.21875 L 230.324219 121.609375 L 225.699219 124.28125 Z M 111.667969 176.757812 L 99.792969 169.457031 L 99.792969 143.921875 L 117.375 154.117188 L 117.375 186.53125 L 111.667969 189.804688 Z M 109.144531 223.058594 L 109.144531 254.585938 L 108.582031 254.910156 L 73.691406 275.535156 L 73.691406 235.5 L 109.144531 214.636719 L 109.144531 223.058594 " fill-opacity="1" fill-rule="evenodd"/><path fill="#349091" d="M 117.375 186.53125 L 117.375 154.117188 L 135.148438 144.019531 L 135.148438 176.332031 Z M 230.097656 109.21875 L 247.679688 99.210938 L 247.679688 114.359375 L 245.4375 112.957031 L 230.324219 121.609375 Z M 38.238281 214.636719 L 73.691406 235.5 L 73.691406 275.441406 L 38.238281 254.585938 L 38.238281 214.636719 " fill-opacity="1" fill-rule="evenodd"/><path fill="#b2c3e8" d="M 185.191406 147.570312 L 179.957031 150.5625 L 179.957031 88.828125 L 185.191406 91.914062 L 185.191406 147.570312 " fill-opacity="1" fill-rule="evenodd"/><path fill="#f1a20f" d="M 139.261719 121.847656 L 139.589844 173.765625 L 135.148438 176.332031 L 135.148438 144.019531 L 121.957031 136.253906 L 121.957031 111.933594 Z M 208.203125 134.332031 L 202.871094 137.421875 L 202.871094 98.835938 L 208.203125 102.300781 L 208.203125 134.332031 " fill-opacity="1" fill-rule="evenodd"/><path fill="#e7137c" d="M 94.085938 186.765625 L 111.667969 176.757812 L 111.667969 189.804688 L 102.3125 195.179688 L 102.175781 201.542969 L 94.410156 205.9375 L 94.085938 205.753906 Z M 179.957031 80.214844 L 179.957031 150.5625 L 162.460938 160.625 L 162.460938 90.136719 L 179.957031 80.214844 " fill-opacity="1" fill-rule="evenodd"/><path fill="#b2164d" d="M 76.6875 176.566406 L 94.085938 186.765625 L 94.085938 205.753906 L 76.6875 195.464844 Z M 162.460938 90.136719 L 162.460938 160.625 L 156.476562 164.082031 L 156.476562 111.742188 L 145.253906 105.101562 L 145.253906 80.128906 L 162.460938 90.136719 " fill-opacity="1" fill-rule="evenodd"/><path fill="#f3f9fd" d="M 173.640625 250.421875 L 96.328125 205.851562 L 96.234375 205.753906 L 96.328125 205.753906 L 96.703125 205.476562 L 102.175781 202.34375 L 102.035156 206.410156 Z M 330.558594 186.113281 L 195.953125 263.285156 L 193.378906 261.785156 L 328.59375 184.332031 L 330.367188 185.363281 C 330.496094 185.484375 330.558594 185.609375 330.558594 185.738281 C 330.558594 185.859375 330.558594 185.953125 330.558594 186.015625 L 330.367188 185.546875 L 330.558594 186.113281 " fill-opacity="1" fill-rule="evenodd"/><g clip-path="url(#f344ffd4c5)"><path fill="#ecf3fb" d="M 196.414062 304.90625 L 196.414062 302.378906 L 330.558594 225.492188 L 330.648438 225.300781 L 330.648438 227.640625 Z M 330.558594 215.574219 L 196.328125 292.746094 L 196.136719 282.832031 L 330.558594 205.753906 Z M 330.558594 195.929688 L 196.046875 273.101562 L 195.953125 263.285156 L 330.558594 186.113281 L 330.558594 195.929688 " fill-opacity="1" fill-rule="evenodd"/></g><g clip-path="url(#f182ddabd6)"><path fill="#cce2f5" d="M 195.953125 263.285156 L 196.046875 273.101562 L 330.558594 195.929688 L 330.558594 205.753906 L 196.136719 282.832031 L 196.328125 292.746094 L 330.558594 215.574219 L 330.648438 225.300781 L 330.558594 225.492188 L 196.414062 302.378906 L 196.414062 304.90625 L 108.582031 254.910156 L 109.144531 254.585938 L 109.144531 252.710938 L 195.953125 302.664062 L 196.414062 302.378906 L 196.328125 292.746094 L 195.953125 292.839844 L 109.144531 242.890625 L 109.144531 232.972656 L 195.953125 282.925781 L 196.136719 282.832031 L 196.046875 273.101562 L 195.953125 273.101562 L 109.144531 223.058594 L 109.144531 214.636719 L 96.328125 207.0625 L 96.328125 205.851562 L 173.640625 250.421875 L 192.769531 262.160156 L 193.378906 261.785156 L 195.953125 263.285156 " fill-opacity="1" fill-rule="evenodd"/></g><path fill="#7c7767" d="M 96.703125 205.476562 L 96.328125 205.753906 C 96.328125 205.5625 96.390625 205.410156 96.519531 205.285156 C 96.574219 205.285156 96.640625 205.347656 96.703125 205.476562 " fill-opacity="1" fill-rule="evenodd"/><path fill="#b0cced" d="M 223.074219 187.515625 L 226.074219 185.738281 L 256.285156 204.351562 L 253.203125 206.128906 Z M 228.132812 220.53125 L 225.039062 222.308594 L 194.921875 203.601562 L 197.914062 202.011719 Z M 247.585938 209.402344 L 244.589844 211.175781 L 214.378906 192.378906 L 217.375 190.695312 Z M 239.914062 213.800781 L 236.738281 215.574219 L 206.710938 196.777344 L 209.703125 195.089844 Z M 187.253906 207.996094 L 190.246094 206.21875 L 220.460938 224.925781 L 217.277344 226.707031 Z M 179.113281 212.675781 L 182.199219 210.894531 L 212.410156 229.605469 L 209.234375 231.382812 Z M 189.589844 196.210938 L 186.597656 197.988281 L 156.945312 179.472656 L 159.84375 177.691406 Z M 109.144531 242.890625 L 195.953125 292.839844 L 196.328125 292.746094 L 196.414062 302.378906 L 195.953125 302.664062 L 109.144531 252.710938 Z M 109.144531 232.972656 L 109.144531 223.058594 L 195.953125 273.101562 L 196.046875 273.101562 L 196.136719 282.832031 L 195.953125 282.925781 Z M 166.300781 209.683594 L 163.117188 211.269531 L 127.199219 189.011719 L 130.191406 187.230469 Z M 141.230469 188.539062 L 144.128906 186.765625 L 173.78125 205.285156 L 170.785156 206.96875 Z M 178.925781 202.386719 L 149.277344 183.863281 L 152.269531 182.089844 L 182.015625 200.605469 Z M 170.410156 217.726562 L 173.5 215.949219 L 203.71875 234.5625 L 200.535156 236.246094 Z M 172.941406 170.300781 L 175.933594 168.523438 L 205.492188 187.046875 L 202.3125 188.636719 Z M 208.484375 149.8125 L 211.667969 148.128906 L 241.039062 166.558594 L 237.855469 168.425781 Z M 200.445312 154.492188 L 203.429688 152.808594 L 232.617188 170.957031 L 229.433594 172.542969 Z M 188.65625 161.226562 L 191.648438 159.453125 L 221.300781 177.972656 L 218.308594 179.75 Z M 180.980469 165.625 L 183.980469 163.84375 L 213.628906 182.371094 L 210.542969 184.148438 Z M 219.148438 143.730469 L 248.988281 162.160156 L 245.8125 163.84375 L 216.152344 145.421875 Z M 224.851562 140.554688 L 227.941406 138.777344 L 257.59375 157.117188 L 254.503906 158.886719 Z M 102.175781 201.542969 L 102.3125 195.179688 L 193.519531 251.871094 L 192.769531 262.160156 L 173.640625 250.421875 L 102.035156 206.410156 L 102.175781 202.34375 Z M 264.328125 199.671875 L 261.242188 201.636719 L 231.117188 182.839844 L 234.207031 181.148438 Z M 279.765625 190.878906 L 276.585938 192.753906 L 246.554688 174.042969 L 249.546875 172.265625 Z M 287.433594 186.488281 L 284.441406 188.261719 L 254.226562 169.550781 L 257.21875 167.867188 Z M 272.09375 195.277344 L 269.101562 197.054688 L 238.882812 178.441406 L 241.878906 176.757812 Z M 278.640625 155.617188 L 281.632812 153.835938 L 311.9375 172.457031 L 308.945312 174.230469 Z M 262.925781 164.691406 L 265.917969 162.910156 L 296.132812 181.523438 L 293.046875 183.207031 Z M 270.96875 160.011719 L 274.058594 158.234375 L 304.179688 176.941406 L 300.996094 178.722656 Z M 273.308594 148.128906 L 270.316406 149.8125 L 240.664062 131.480469 L 243.65625 129.699219 Z M 265.636719 152.621094 L 262.554688 154.304688 L 232.992188 135.878906 L 235.988281 134.097656 L 265.636719 152.621094 " fill-opacity="1" fill-rule="evenodd"/><g clip-path="url(#43d7c4b6f3)"><path fill="#f5fbfe" d="M 189.589844 196.210938 L 159.84375 177.691406 L 156.945312 179.472656 L 186.597656 197.988281 Z M 179.113281 212.675781 L 209.234375 231.382812 L 212.410156 229.605469 L 182.199219 210.894531 Z M 187.253906 207.996094 L 217.277344 226.707031 L 220.460938 224.925781 L 190.246094 206.21875 Z M 239.914062 213.800781 L 209.703125 195.089844 L 206.710938 196.777344 L 236.738281 215.574219 Z M 247.585938 209.402344 L 217.375 190.695312 L 214.378906 192.378906 L 244.589844 211.175781 Z M 228.132812 220.53125 L 197.914062 202.011719 L 194.921875 203.601562 L 225.039062 222.308594 Z M 223.074219 187.515625 L 253.203125 206.128906 L 256.285156 204.351562 L 226.074219 185.738281 Z M 170.410156 217.726562 L 200.535156 236.246094 L 203.71875 234.5625 L 173.5 215.949219 Z M 178.925781 202.386719 L 182.015625 200.605469 L 152.269531 182.089844 L 149.277344 183.863281 Z M 141.230469 188.539062 L 170.785156 206.96875 L 173.78125 205.285156 L 144.128906 186.765625 Z M 166.300781 209.683594 L 130.191406 187.230469 L 127.199219 189.011719 L 163.117188 211.269531 Z M 172.941406 170.300781 L 202.3125 188.636719 L 205.492188 187.046875 L 175.933594 168.523438 Z M 224.851562 140.554688 L 254.503906 158.886719 L 257.59375 157.117188 L 227.941406 138.777344 Z M 219.148438 143.730469 L 216.152344 145.421875 L 245.8125 163.84375 L 248.988281 162.160156 Z M 180.980469 165.625 L 210.542969 184.148438 L 213.628906 182.371094 L 183.980469 163.84375 Z M 188.65625 161.226562 L 218.308594 179.75 L 221.300781 177.972656 L 191.648438 159.453125 Z M 200.445312 154.492188 L 229.433594 172.542969 L 232.617188 170.957031 L 203.429688 152.808594 Z M 208.484375 149.8125 L 237.855469 168.425781 L 241.039062 166.558594 L 211.667969 148.128906 Z M 272.09375 195.277344 L 241.878906 176.757812 L 238.882812 178.441406 L 269.101562 197.054688 Z M 287.433594 186.488281 L 257.21875 167.867188 L 254.226562 169.550781 L 284.441406 188.261719 Z M 279.765625 190.878906 L 249.546875 172.265625 L 246.554688 174.042969 L 276.585938 192.753906 Z M 264.328125 199.671875 L 234.207031 181.148438 L 231.117188 182.839844 L 261.242188 201.636719 Z M 265.636719 152.621094 L 235.988281 134.097656 L 232.992188 135.878906 L 262.554688 154.304688 Z M 273.308594 148.128906 L 243.65625 129.699219 L 240.664062 131.480469 L 270.316406 149.8125 Z M 270.96875 160.011719 L 300.996094 178.722656 L 304.179688 176.941406 L 274.058594 158.234375 Z M 262.925781 164.691406 L 293.046875 183.207031 L 296.132812 181.523438 L 265.917969 162.910156 Z M 278.640625 155.617188 L 308.945312 174.230469 L 311.9375 172.457031 L 281.632812 153.835938 Z M 247.679688 114.359375 L 336.730469 169.832031 L 193.519531 251.871094 L 102.3125 195.179688 L 111.667969 189.804688 L 117.375 186.53125 L 135.148438 176.332031 L 139.589844 173.765625 L 156.476562 164.082031 L 162.460938 160.625 L 179.957031 150.5625 L 185.191406 147.570312 L 202.871094 137.421875 L 208.203125 134.332031 L 225.699219 124.28125 L 230.324219 121.609375 L 245.4375 112.957031 L 247.679688 114.359375 " fill-opacity="1" fill-rule="evenodd"/></g><g clip-path="url(#12587021be)"><path fill="#deedf9" d="M 193.378906 261.785156 L 192.769531 262.160156 L 193.519531 251.871094 L 336.730469 169.832031 L 335.984375 180.121094 L 328.59375 184.332031 L 193.378906 261.785156 " fill-opacity="1" fill-rule="evenodd"/></g></svg>